<?xml version="1.0" encoding="iso-8859-1"?>
<!-- Generator: Adobe Illustrator 19.0.0, SVG Export Plug-In . SVG Version: 6.00 Build 0)  -->
<svg version="1.1" id="Layer_1" xmlns="http://www.w3.org/2000/svg" xmlns:xlink="http://www.w3.org/1999/xlink" x="0px" y="0px"
	 viewBox="0 0 512 512" style="enable-background:new 0 0 512 512;" xml:space="preserve">
<rect x="8.348" y="89.733" style="fill:#A1D8F6;" width="495.304" height="331.386"/>
<rect x="43.542" y="117.136" style="fill:#0088FF;" width="424.504" height="276.58"/>
<rect x="255.8" y="117.136" style="fill:#016DF5;" width="212.257" height="276.58"/>
<rect x="235.976" y="69.398" style="fill:#FFFFFF;" width="41.06" height="373.203"/>
<path style="fill:#3C3A41;" d="M503.652,81.386H285.38V69.399c0-4.611-3.736-8.348-8.348-8.348h-41.06
	c-4.61,0-8.348,3.736-8.348,8.348v11.989H99.981c-4.61,0-8.348,3.736-8.348,8.348s3.738,8.348,8.348,8.348h127.644v10.704h-77.956
	H43.542c-4.61,0-8.348,3.736-8.348,8.348v138.864v137.719c0,4.611,3.738,8.348,8.348,8.348h106.126h77.956v10.704H16.696V98.082
	h26.852c4.61,0,8.348-3.736,8.348-8.348s-3.738-8.348-8.348-8.348h-35.2C3.738,81.386,0,85.123,0,89.734v331.385
	c0,4.611,3.738,8.348,8.348,8.348h219.276v13.134c0,4.611,3.738,8.348,8.348,8.348h41.06c4.611,0,8.348-3.736,8.348-8.348v-13.134
	h130.937c4.611,0,8.348-3.736,8.348-8.348c0-4.611-3.736-8.348-8.348-8.348H285.38v-10.704h76.542h106.126
	c4.611,0,8.348-3.736,8.348-8.348v-137.72V117.134c0-4.611-3.736-8.348-8.348-8.348H361.922H285.38V98.082h209.924v314.69h-27.248
	c-4.611,0-8.348,3.736-8.348,8.348c0,4.611,3.736,8.348,8.348,8.348h35.596c4.611,0,8.348-3.736,8.348-8.348V89.734
	C512,85.124,508.263,81.386,503.652,81.386z M51.89,125.482h89.431v122.17H51.89V125.482z M51.89,385.371V264.347h89.431v121.023
	H51.89z M158.015,385.371V255.999V125.482h69.609v259.889H158.015z M268.684,434.252H244.32v-13.134v-27.4V117.134v-27.4V77.747
	h24.365v11.989v27.4V393.72v27.4V434.252z M370.269,385.371V264.347H459.7v121.023H370.269z M459.7,125.482v122.17h-89.431v-122.17
	H459.7z M353.574,125.482v130.518v129.371H285.38V125.482H353.574z"/>
<g>
</g>
<g>
</g>
<g>
</g>
<g>
</g>
<g>
</g>
<g>
</g>
<g>
</g>
<g>
</g>
<g>
</g>
<g>
</g>
<g>
</g>
<g>
</g>
<g>
</g>
<g>
</g>
<g>
</g>
</svg>
