<?xml version="1.0" encoding="iso-8859-1"?>
<!-- Generator: Adobe Illustrator 19.0.0, SVG Export Plug-In . SVG Version: 6.00 Build 0)  -->
<svg version="1.1" id="Layer_1" xmlns="http://www.w3.org/2000/svg" xmlns:xlink="http://www.w3.org/1999/xlink" x="0px" y="0px"
	 viewBox="0 0 512 512" style="enable-background:new 0 0 512 512;" xml:space="preserve">
<circle style="fill:#FFD066;" cx="256" cy="256" r="181.45"/>
<path style="fill:#FCBE42;" d="M256,74.554c-3.356,0-6.689,0.098-10,0.278C341.558,80.023,417.446,159.146,417.446,256
	S341.558,431.977,246,437.168c3.311,0.18,6.644,0.278,10,0.278c100.21,0,181.446-81.236,181.446-181.446S356.21,74.554,256,74.554z"
	/>
<path style="fill:#AF0E35;" d="M376.4,301.525c-9.208,24.337-25.572,45.148-46.519,59.87c-20.916,14.68-46.394,23.301-73.88,23.301
	s-52.964-8.622-73.88-23.301c-20.947-14.722-37.312-35.533-46.519-59.87c0,0,69.454,4.698,120.4,4.698S376.4,301.525,376.4,301.525z
	"/>
<path style="fill:#F1F2F2;" d="M376.4,301.525c-3.087,8.172-6.989,15.946-11.604,23.228c-21.899,1.318-70.564,3.966-108.796,3.966
	s-86.897-2.647-108.796-3.966c-4.614-7.282-8.517-15.056-11.604-23.228c0,0,69.454,4.698,120.4,4.698S376.4,301.525,376.4,301.525z"
	/>
<g>
	<path style="fill:#F24E5E;" d="M329.88,361.395c-20.916,14.68-46.394,23.301-73.88,23.301s-52.964-8.622-73.88-23.301
		c17.609-9.082,44.165-14.868,73.88-14.868S312.271,352.313,329.88,361.395z"/>
	<path style="fill:#F24E5E;" d="M439.309,178.111c-0.206-1.357-1.239-2.388-2.529-2.55l-14.506-1.709c0,0-53.351-6.132-88.764-3.419
		c-35.412,2.713-54.874,15.575-54.874,15.575L256,185.844l-22.636,0.163c0,0-19.461-12.862-54.848-15.575
		c-35.412-2.713-88.79,3.419-88.79,3.419L75.22,175.56c-1.291,0.163-2.323,1.194-2.529,2.55c-0.31,2.225-0.568,5.997,0.103,11.098
		c0.207,1.302,1.136,2.306,2.375,2.523c4.078,0.76,13.422,3.31,18.171,10.718l0.052,0.054c6.065,30.038,22.378,73.318,65.818,75.488
		c66.902,3.337,83.008-63.576,83.008-63.576s4.62-7.082,13.783-7.082s13.783,7.082,13.783,7.082s16.132,66.914,83.008,63.576
		c43.44-2.171,59.752-45.45,65.844-75.488l0.052-0.054c4.723-7.408,14.093-9.958,18.145-10.718c1.239-0.217,2.168-1.221,2.375-2.523
		C439.877,184.108,439.619,180.336,439.309,178.111z"/>
</g>
<path id="SVGCleanerId_0" style="fill:#7AC9E5;" d="M164.784,255.346c-19.234,0-32.527-11.134-40.638-34.037
	c-3.823-10.795-5.495-21.786-6.226-29.24c8.2-0.846,20.938-1.854,35.062-1.854c28.798,0,51.018,4.051,64.829,11.764
	c-0.779,5.924-2.689,15.715-7.326,25.278C201.322,246.159,186.373,255.346,164.784,255.346z"/>
<g>
	<path id="SVGCleanerId_0_1_" style="fill:#7AC9E5;" d="M164.784,255.346c-19.234,0-32.527-11.134-40.638-34.037
		c-3.823-10.795-5.495-21.786-6.226-29.24c8.2-0.846,20.938-1.854,35.062-1.854c28.798,0,51.018,4.051,64.829,11.764
		c-0.779,5.924-2.689,15.715-7.326,25.278C201.322,246.159,186.373,255.346,164.784,255.346z"/>
</g>
<path style="fill:#41B6D6;" d="M197.687,194.607c-0.85,8.475-2.791,21.635-7.201,34.514c-3.577,10.448-8.04,18.79-13.432,25.09
	c15.116-2.979,26.119-11.869,33.432-26.953c4.637-9.563,6.547-19.354,7.326-25.278C212.376,198.944,205.617,196.485,197.687,194.607
	z"/>
<path style="fill:#7AC9E5;" d="M347.216,255.346c-21.794,0-36.825-9.36-45.955-28.616c-3.775-7.962-5.684-16.059-6.643-21.886
	c-0.285-1.729,0.589-3.447,2.163-4.218c13.932-6.833,35.188-10.411,62.247-10.411c11.99,0,22.94,0.721,30.982,1.455
	c2.265,0.207,3.895,2.248,3.608,4.504c-0.902,7.092-2.593,16.181-5.763,25.134C379.743,244.213,366.45,255.346,347.216,255.346z"/>
<path style="fill:#41B6D6;" d="M375.167,190.628c-0.771,7.986-2.454,19.371-6.141,30.57c-5.931,18.016-14.637,29.254-26.407,33.998
	c1.499,0.097,3.028,0.151,4.596,0.151c19.235,0,32.527-11.134,40.638-34.037c3.171-8.953,4.862-18.042,5.763-25.134
	c0.287-2.256-1.343-4.298-3.609-4.504C385.775,191.285,380.735,190.904,375.167,190.628z"/>
<path d="M256,44.294c4.142,0,7.5-3.358,7.5-7.5V7.5c0-4.142-3.358-7.5-7.5-7.5s-7.5,3.358-7.5,7.5v29.294
	C248.5,40.937,251.858,44.294,256,44.294z"/>
<path d="M256,467.706c-4.142,0-7.5,3.358-7.5,7.5V504.5c0,4.142,3.358,7.5,7.5,7.5s7.5-3.358,7.5-7.5v-29.294
	C263.5,471.063,260.142,467.706,256,467.706z"/>
<path d="M139.902,69.912c1.389,2.406,3.91,3.751,6.502,3.751c1.272,0,2.562-0.324,3.743-1.006c3.587-2.071,4.816-6.658,2.745-10.245
	l-14.647-25.37c-2.071-3.587-6.659-4.816-10.245-2.745c-3.587,2.071-4.816,6.658-2.745,10.245L139.902,69.912z"/>
<path d="M372.098,442.088c-2.071-3.588-6.658-4.816-10.245-2.745s-4.816,6.658-2.745,10.245l14.647,25.37
	c1.389,2.406,3.91,3.751,6.502,3.751c1.272,0,2.562-0.324,3.743-1.006c3.587-2.071,4.816-6.658,2.745-10.245L372.098,442.088z"/>
<path d="M37.042,138.245l25.37,14.647c1.181,0.682,2.471,1.006,3.743,1.006c2.592,0,5.113-1.346,6.502-3.751
	c2.071-3.587,0.842-8.174-2.745-10.245l-25.37-14.647c-3.587-2.073-8.174-0.842-10.245,2.745
	C32.226,131.587,33.455,136.174,37.042,138.245z"/>
<path d="M474.958,373.755l-25.37-14.647c-3.587-2.073-8.174-0.842-10.245,2.745c-2.071,3.587-0.842,8.174,2.745,10.245l25.37,14.647
	c1.181,0.682,2.471,1.006,3.743,1.006c2.592,0,5.113-1.346,6.502-3.751C479.774,380.413,478.545,375.826,474.958,373.755z"/>
<path d="M44.294,256c0-4.142-3.358-7.5-7.5-7.5H7.5c-4.142,0-7.5,3.358-7.5,7.5s3.358,7.5,7.5,7.5h29.294
	C40.937,263.5,44.294,260.142,44.294,256z"/>
<path d="M504.5,248.5h-29.294c-4.142,0-7.5,3.358-7.5,7.5s3.358,7.5,7.5,7.5H504.5c4.142,0,7.5-3.358,7.5-7.5
	S508.642,248.5,504.5,248.5z"/>
<path d="M62.412,359.108l-25.37,14.647c-3.587,2.071-4.816,6.658-2.745,10.245c1.389,2.406,3.91,3.751,6.502,3.751
	c1.272,0,2.562-0.324,3.743-1.006l25.37-14.647c3.587-2.071,4.816-6.658,2.745-10.245C70.586,358.266,65.999,357.036,62.412,359.108
	z"/>
<path d="M445.845,153.898c1.272,0,2.562-0.324,3.743-1.006l25.37-14.647c3.587-2.071,4.816-6.658,2.745-10.245
	s-6.658-4.817-10.245-2.745l-25.37,14.647c-3.587,2.071-4.816,6.658-2.745,10.245C440.732,152.553,443.253,153.898,445.845,153.898z
	"/>
<path d="M150.147,439.343c-3.588-2.072-8.174-0.842-10.245,2.745l-14.647,25.37c-2.071,3.587-0.842,8.174,2.745,10.245
	c1.181,0.682,2.471,1.006,3.743,1.006c2.592,0,5.113-1.346,6.502-3.751l14.647-25.37C154.963,446,153.734,441.414,150.147,439.343z"
	/>
<path d="M361.853,72.657c1.181,0.682,2.471,1.006,3.743,1.006c2.592,0,5.113-1.346,6.502-3.751l14.647-25.37
	c2.071-3.587,0.842-8.174-2.745-10.245c-3.588-2.072-8.174-0.842-10.245,2.745l-14.647,25.37
	C357.037,66,358.266,70.586,361.853,72.657z"/>
<path d="M436.352,199.52c0.742-0.191,1.36-0.322,1.775-0.4c4.369-0.766,7.779-4.276,8.486-8.736c0.011-0.065,0.02-0.131,0.029-0.196
	c0.771-5.861,0.478-10.365,0.082-13.206c-0.706-4.638-4.409-8.282-9.066-8.87L423.13,166.4c-0.121-0.014-0.4-0.046-0.81-0.091
	c-15.61-28.887-38.489-53.289-66.421-70.719C325.979,76.919,291.435,67.05,256,67.05c-11.743,0-23.5,1.086-34.946,3.227
	c-4.071,0.762-6.754,4.68-5.993,8.751s4.674,6.754,8.751,5.993C234.351,83.049,245.18,82.05,256,82.05
	c60.892,0,116.388,31.287,147.995,82.505c-18.97-1.581-48.355-3.343-71.058-1.601c-30.736,2.355-50.193,12.032-56.351,15.538
	l-20.533-0.147c-0.035,0-0.072,0-0.107,0l-20.533,0.147c-6.156-3.506-25.61-13.183-56.325-15.538
	c-22.708-1.74-52.11,0.023-71.092,1.604c20.236-32.749,50.651-57.875,86.909-71.478c3.878-1.455,5.843-5.778,4.388-9.656
	c-1.456-3.879-5.78-5.843-9.656-4.388c-42.875,16.086-78.236,46.995-99.984,87.277c-0.406,0.045-0.684,0.077-0.805,0.091
	l-14.568,1.717c-4.595,0.581-8.297,4.225-9.018,8.958c-0.382,2.745-0.675,7.249,0.096,13.11c0.009,0.065,0.018,0.131,0.029,0.197
	c0.707,4.459,4.118,7.97,8.409,8.722c0.437,0.081,1.083,0.217,1.852,0.415C69.944,217.736,67.05,236.699,67.05,256
	c0,104.188,84.763,188.95,188.95,188.95c32.964,0,65.418-8.618,93.854-24.923c27.575-15.811,50.914-38.511,67.494-65.648
	c2.16-3.534,1.045-8.15-2.49-10.31c-3.535-2.161-8.151-1.045-10.31,2.49C372.643,398.776,317.111,429.95,256,429.95
	c-95.917,0-173.95-78.034-173.95-173.95c0-15.083,1.915-29.938,5.701-44.335c3.366,13.755,8.016,25.88,13.861,36.127
	c2.053,3.598,6.633,4.852,10.231,2.798c3.598-2.053,4.851-6.633,2.798-10.231c-6.116-10.721-10.792-23.957-13.898-39.339
	c-0.201-0.994-0.626-1.96-1.21-2.804c-2.835-4.337-6.71-7.364-10.575-9.477c-0.099-0.061-0.203-0.114-0.305-0.171
	c-0.031-0.017-0.062-0.034-0.093-0.05c-0.137-0.073-0.275-0.147-0.418-0.212c-2.941-1.514-5.833-2.517-8.208-3.164
	c-0.055-0.943-0.071-1.804-0.062-2.579l10.709-1.262c0.527-0.061,53.088-6.016,87.361-3.392
	c32.734,2.51,51.127,14.251,51.286,14.354c1.242,0.821,2.708,1.226,4.189,1.243L256,193.344l22.583,0.163
	c1.47,0.009,2.934-0.427,4.166-1.228c0.182-0.118,18.576-11.859,51.335-14.37c34.275-2.627,86.809,3.332,87.313,3.389l10.729,1.265
	c0.01,0.778-0.006,1.639-0.061,2.578c-2.351,0.641-5.23,1.639-8.162,3.146c-0.321,0.144-0.627,0.307-0.918,0.49
	c-3.785,2.083-7.579,5.045-10.376,9.262c-0.652,0.88-1.105,1.895-1.325,2.975c-6.22,30.669-21.481,67.621-58.867,69.489
	c-24.928,1.244-45.098-7.902-59.932-27.184c-11.445-14.876-15.377-30.519-15.412-30.659c-0.2-0.832-0.542-1.623-1.009-2.339
	c-2.54-3.895-9.625-10.485-20.064-10.485s-17.524,6.59-20.064,10.484c-0.468,0.718-0.81,1.51-1.01,2.343
	c-0.037,0.152-3.79,15.372-15.097,30.258c-14.854,19.556-35.125,28.837-60.245,27.583c-9.222-0.461-17.583-3.084-24.852-7.799
	c-3.475-2.253-8.119-1.264-10.374,2.212c-2.254,3.475-1.264,8.12,2.211,10.373c9.515,6.171,20.371,9.601,32.266,10.195
	c1.75,0.087,3.466,0.13,5.152,0.13c34.752,0,55.963-18.056,67.786-33.621c10.98-14.456,15.845-29.152,17.271-34.1
	c1.05-1.104,3.41-3.059,6.956-3.059c3.547,0,5.907,1.956,6.956,3.06c1.426,4.945,6.296,19.643,17.28,34.1
	c11.826,15.566,33.033,33.622,67.778,33.62c1.683,0,3.404-0.043,5.151-0.13c34.774-1.738,59.818-27.863,71.088-73.802
	c3.784,14.391,5.697,29.242,5.697,44.319c0,22.301-4.159,44.014-12.363,64.534c-1.538,3.846,0.334,8.211,4.18,9.749
	c0.913,0.365,1.855,0.538,2.782,0.538c2.977,0,5.794-1.785,6.967-4.718c8.914-22.299,13.434-45.885,13.434-70.102
	C444.95,236.699,442.056,217.736,436.352,199.52z"/>
<path d="M382.423,297.057C382.423,297.056,382.422,297.056,382.423,297.057c-0.001-0.001-0.001-0.002-0.001-0.002
	c-0.069-0.093-0.149-0.173-0.222-0.262c-0.128-0.157-0.252-0.318-0.391-0.462c-0.041-0.042-0.087-0.077-0.129-0.118
	c-0.181-0.18-0.365-0.357-0.562-0.516c-1.453-1.176-3.313-1.782-5.226-1.654c-0.692,0.047-69.781,4.681-119.893,4.681
	c-50.101,0-119.201-4.634-119.893-4.681c-0.637-0.043-1.269-0.004-1.882,0.111c-1.775,0.33-3.379,1.3-4.516,2.748
	c-0.042,0.053-0.09,0.1-0.13,0.154c0,0,0,0.001-0.001,0.001l-0.001,0.001c-0.146,0.196-0.271,0.403-0.396,0.61
	c-0.038,0.063-0.084,0.121-0.12,0.185c-0.766,1.363-1.081,2.925-0.918,4.464c0.001,0.009,0,0.019,0.001,0.028
	c0.026,0.232,0.073,0.463,0.12,0.693c0.016,0.077,0.022,0.156,0.04,0.232c0.042,0.175,0.105,0.346,0.159,0.519
	c0.041,0.129,0.071,0.26,0.119,0.388c0,0.001,0.001,0.002,0.001,0.003l0,0c0.001,0.003,0.003,0.006,0.004,0.01
	c0.534,1.413,1.101,2.816,1.684,4.213c0.155,0.371,0.311,0.741,0.469,1.111c0.492,1.149,0.998,2.293,1.522,3.43
	c0.227,0.493,0.458,0.983,0.69,1.473c0.452,0.95,0.913,1.896,1.387,2.836c0.357,0.71,0.722,1.415,1.091,2.117
	c0.227,0.432,0.46,0.86,0.691,1.289c10.003,18.565,24.174,34.571,41.686,46.878c15.805,11.092,33.523,18.589,52.205,22.192
	c8.492,1.638,17.183,2.47,25.984,2.47c3.52,0,7.023-0.133,10.503-0.398c21.392-1.627,41.893-8.242,60.197-19.388
	c2.538-1.546,5.043-3.16,7.493-4.879c17.511-12.306,31.681-28.313,41.685-46.879c0.231-0.427,0.462-0.854,0.688-1.283
	c0.37-0.704,0.736-1.41,1.094-2.122c0.474-0.939,0.934-1.883,1.385-2.832c0.233-0.49,0.464-0.981,0.691-1.474
	c0.524-1.137,1.03-2.28,1.522-3.43c0.158-0.37,0.314-0.74,0.469-1.111c0.583-1.397,1.15-2.799,1.684-4.213
	c0.001-0.003,0.003-0.006,0.004-0.009c0,0,0,0,0-0.001s0.001-0.002,0.001-0.003c0.048-0.127,0.078-0.259,0.119-0.388
	c0.055-0.173,0.117-0.344,0.159-0.519c0.018-0.077,0.025-0.155,0.04-0.232c0.047-0.23,0.095-0.461,0.12-0.693
	c0.001-0.009,0-0.019,0.001-0.028c0.163-1.539-0.152-3.101-0.918-4.464c-0.036-0.063-0.082-0.122-0.12-0.185
	C382.694,297.46,382.569,297.253,382.423,297.057z M259.814,313.714c2.008-0.009,4.043-0.025,6.097-0.047
	c2.501-0.026,5.03-0.062,7.581-0.106c0.632-0.011,1.265-0.022,1.899-0.034c1.405-0.026,2.815-0.055,4.229-0.086
	c4.593-0.1,9.227-0.223,13.851-0.364c0.018,0,0.036-0.001,0.054-0.002c25.435-0.78,50.522-2.098,66.43-3.022
	c0.51-0.03,0.999-0.058,1.49-0.087c0.376-0.022,0.761-0.044,1.125-0.066c0.708-0.042,1.398-0.083,2.061-0.123
	c-1.3,2.621-2.698,5.198-4.188,7.722c-25.33,1.489-69.175,3.72-104.443,3.72s-79.113-2.231-104.443-3.72
	c-1.49-2.523-2.888-5.101-4.188-7.722c0.663,0.04,1.353,0.081,2.061,0.123c0.365,0.021,0.749,0.044,1.125,0.066
	c0.491,0.029,0.98,0.057,1.49,0.087c15.907,0.924,40.995,2.243,66.43,3.022c0.018,0.001,0.036,0.001,0.054,0.002
	c4.624,0.142,9.257,0.264,13.851,0.364c1.414,0.031,2.824,0.06,4.229,0.086c0.634,0.012,1.267,0.023,1.899,0.034
	c2.552,0.044,5.081,0.079,7.581,0.106c2.053,0.022,4.089,0.038,6.097,0.047c1.281,0.006,2.554,0.009,3.814,0.009
	C257.26,313.723,258.532,313.72,259.814,313.714z M251.697,377.115c-0.452-0.016-0.902-0.042-1.352-0.062
	c-0.992-0.046-1.982-0.1-2.97-0.169c-0.509-0.036-1.017-0.076-1.524-0.118c-0.963-0.08-1.923-0.172-2.882-0.274
	c-0.475-0.051-0.951-0.098-1.425-0.154c-1.161-0.138-2.318-0.294-3.472-0.465c-0.25-0.037-0.502-0.066-0.751-0.105
	c-1.4-0.216-2.793-0.459-4.181-0.723c-0.383-0.073-0.763-0.156-1.144-0.233c-1.011-0.203-2.02-0.415-3.024-0.643
	c-0.484-0.11-0.966-0.226-1.448-0.342c-0.923-0.222-1.842-0.455-2.759-0.698c-0.475-0.126-0.951-0.251-1.424-0.384
	c-1.009-0.281-2.014-0.58-3.015-0.888c-0.352-0.108-0.706-0.209-1.057-0.32c-1.34-0.425-2.672-0.873-3.996-1.345
	c-0.289-0.103-0.573-0.216-0.861-0.321c-1.038-0.379-2.072-0.77-3.1-1.178c-0.454-0.18-0.904-0.368-1.356-0.554
	c-0.871-0.358-1.739-0.726-2.603-1.105c-0.469-0.206-0.936-0.413-1.403-0.624c-0.892-0.405-1.777-0.824-2.66-1.252
	c-0.4-0.194-0.802-0.382-1.2-0.58c-1.248-0.621-2.488-1.26-3.716-1.926c16.075-5.546,36.31-8.625,57.626-8.625
	s41.55,3.079,57.626,8.625c-1.232,0.667-2.475,1.309-3.726,1.932c-0.383,0.191-0.77,0.371-1.155,0.558
	c-0.899,0.436-1.801,0.863-2.709,1.275c-0.454,0.206-0.911,0.408-1.367,0.609c-0.877,0.385-1.758,0.759-2.644,1.122
	c-0.44,0.181-0.88,0.364-1.322,0.54c-1.045,0.415-2.097,0.813-3.153,1.198c-0.271,0.099-0.539,0.205-0.811,0.302
	c-1.329,0.474-2.666,0.923-4.011,1.35c-0.341,0.108-0.685,0.206-1.026,0.311c-1.011,0.311-2.026,0.612-3.046,0.897
	c-0.468,0.13-0.938,0.254-1.408,0.379c-0.922,0.245-1.848,0.479-2.776,0.703c-0.478,0.115-0.956,0.23-1.435,0.339
	c-1.008,0.229-2.02,0.442-3.035,0.646c-0.379,0.076-0.757,0.159-1.137,0.232c-1.389,0.265-2.784,0.508-4.184,0.724
	c-0.246,0.038-0.494,0.067-0.74,0.104c-1.158,0.171-2.319,0.328-3.484,0.466c-0.472,0.056-0.945,0.103-1.418,0.154
	c-0.961,0.103-1.924,0.195-2.89,0.275c-0.506,0.042-1.012,0.082-1.518,0.117c-0.989,0.069-1.981,0.124-2.974,0.169
	c-0.45,0.021-0.9,0.047-1.351,0.062c-1.431,0.05-2.865,0.081-4.303,0.081S253.128,377.165,251.697,377.115z M329.082,352.687
	c-19.109-8.71-45.396-13.66-73.082-13.66s-53.974,4.95-73.082,13.66c-7.596-5.748-14.426-12.307-20.405-19.543
	c25.966,1.418,62.872,3.075,93.487,3.075s67.521-1.657,93.488-3.075C343.509,340.381,336.678,346.94,329.082,352.687z"/>
<path d="M165.743,135.959c1.451,2.138,3.811,3.29,6.213,3.29c1.45,0,2.915-0.42,4.205-1.295
	c23.629-16.036,51.237-24.511,79.839-24.511c4.142,0,7.5-3.358,7.5-7.5s-3.358-7.5-7.5-7.5c-31.617,0-62.138,9.371-88.262,27.099
	C164.311,127.868,163.417,132.532,165.743,135.959z"/>
<path d="M164.784,262.847c24.407,0,42.054-10.873,52.451-32.316c4.978-10.266,7.105-20.661,8.013-27.573
	c0.4-3.045-1.097-6.027-3.779-7.525c-15.109-8.438-38.151-12.717-68.486-12.717c-14.444,0-27.458,1.029-35.832,1.893
	c-4.105,0.423-7.098,4.084-6.695,8.192c0.762,7.772,2.53,19.461,6.62,31.011C126.249,249.714,142.3,262.847,164.784,262.847z
	 M126.33,198.829c7.405-0.598,16.679-1.113,26.653-1.113c24.245,0,43.617,2.937,56.527,8.53c-0.979,4.95-2.721,11.447-5.772,17.74
	c-7.893,16.278-20.271,23.86-38.954,23.86c-9.996,0-24.35-3.01-33.568-29.042C128.762,211.876,127.255,204.819,126.33,198.829z"/>
<path d="M347.215,262.847c22.484,0,38.536-13.133,47.708-39.034c4.091-11.554,5.858-23.243,6.62-31.014
	c0.402-4.107-2.589-7.768-6.694-8.192c-8.347-0.862-21.338-1.89-35.824-1.89c-30.331,0-53.374,4.278-68.489,12.716
	c-2.684,1.498-4.182,4.481-3.78,7.528c0.889,6.75,2.951,16.91,7.727,26.984C304.835,251.776,322.577,262.847,347.215,262.847z
	 M359.026,197.716c9.996,0,19.258,0.513,26.645,1.109c-0.925,5.99-2.432,13.049-4.887,19.98
	c-9.219,26.031-23.573,29.042-33.569,29.042c-18.859,0-31.308-7.731-39.178-24.329c-2.861-6.035-4.551-12.179-5.549-17.268
	C315.404,200.655,334.781,197.716,359.026,197.716z"/>
<g>
</g>
<g>
</g>
<g>
</g>
<g>
</g>
<g>
</g>
<g>
</g>
<g>
</g>
<g>
</g>
<g>
</g>
<g>
</g>
<g>
</g>
<g>
</g>
<g>
</g>
<g>
</g>
<g>
</g>
</svg>
